<svg width="24" height="24" viewBox="0 0 24 24" fill="none" xmlns="http://www.w3.org/2000/svg">
<path fill-rule="evenodd" clip-rule="evenodd" d="M19 3H5C3.9 3 3 3.9 3 5V19C3 20.1 3.9 21 5 21H19C20.1 21 21 20.1 21 19V5C21 3.9 20.1 3 19 3Z" fill="white"/>
<path d="M19 2H5V4H19V2ZM5 2C3.34772 2 2 3.34772 2 5H4C4 4.45228 4.45228 4 5 4V2ZM2 5V19H4V5H2ZM2 19C2 20.6523 3.34772 22 5 22V20C4.45228 20 4 19.5477 4 19H2ZM5 22H19V20H5V22ZM19 22C20.6523 22 22 20.6523 22 19H20C20 19.5477 19.5477 20 19 20V22ZM22 19V5H20V19H22ZM22 5C22 3.34772 20.6523 2 19 2V4C19.5477 4 20 4.45228 20 5H22Z" fill="#00958C"/>
</svg>
